<svg id="Слой_1" data-name="Слой 1" xmlns="http://www.w3.org/2000/svg" viewBox="0 0 2260 1211.8"><defs><style>.cls-1{opacity:0.9;}.cls-2{fill:#f7f7f7;}.cls-3{fill:#f1f1f1;}.cls-4{fill:#f6f6f6;}.cls-5{fill:#d6d6d6;}.cls-6{fill:#dcdcdc;}.cls-7{fill:#d8d8d8;}.cls-8{fill:#dedede;}.cls-9{fill:#e8e8e8;}.cls-10{fill:#e4e4e4;}.cls-11{fill:#ececec;}.cls-12{fill:#616161;}</style></defs><title>Монтажная область 2</title><g class="cls-1"><g class="cls-1"><path class="cls-2" d="M294,683.4c-3.77-.83-7.56-1.4-11.38-2.09.25,5.19-1.07,10.69-4.3,16.58-3.31,1.85-3.22,3.4-.56,4.74a27.27,27.27,0,0,0,5.83,1.88c1.26.29,2.66.57,4.18.84l2.37.41,2.56.47c14.09,2.42,35.41,4.66,57.87,8.61,1.53-5.26-1.07-10.54-9.81-16q-1.64-1-3.57-2.05c-1.29-.67-2.68-1.31-4.17-2-3-1.31-6.39-2.63-10.24-3.95C315.06,688.11,305.57,685.8,294,683.4Z"/><path class="cls-3" d="M97.48,586.81c-5.89,3.45-11.66,6.88-17.16,10.26a13.27,13.27,0,0,1,2.31.81C87.58,594.14,92.6,590.42,97.48,586.81Z"/><path class="cls-2" d="M160.33,657.54c3.74-.15,7.28-.41,10.67-.71s6.64-.48,9.76-.82,6.11-.75,9-1.21l4.29-.72c1.41-.25,2.81-.42,4.19-.65,5.53-.86,10.82-1.84,16.12-2.77l4-.69c1.33-.22,2.66-.37,4-.55,2.68-.34,5.39-.65,8.16-.9-12.34-4.65-22.72-9.45-29.67-16.06a72.2,72.2,0,0,0-7.39-4.83,91.22,91.22,0,0,0-8.72-4.23,174.09,174.09,0,0,0-20.87-7.31,237.92,237.92,0,0,1-36.5,9.49c3.58.61,5.36.92,7.36.63a18,18,0,0,0,3.41-.91c.68-.24,1.44-.52,2.3-.86l3-1.06c-2.24.75-5,1.88-7.91,3l-8.68,3.47-9.85,4c2.77,3,13.78,3.59,27,2.92,6.66-.13,13.89-.6,21-1.32,3.54-.42,7.07-.61,10.47-1s6.68-.78,9.74-1.26L173.36,637c-2.1.7-4.26,1.3-6.43,2.12l-6.6,2.38L147,646.27c-2.19.76-4.34,1.65-6.44,2.51l-6.16,2.52q3.68,1.09,7.53,2.1l3.88,1,4,1.11c6.53-.15,13.26-.51,19-1.09Z"/><path class="cls-2" d="M439.68,798.82c-2.1-1.31-4.12-2.54-6-3.8-8.84,1.64-18.74,2.46-28.67,3.5l10.14,6.19,10.3,6.37c4.83-.58,10.58-1,16.39-1.26.41,1.33.85,2.68,1.37,4-1.18,1.49-2.82,2.86-7.59,3.45l.79.47c4,2.45,7.91,4.89,12,7.3-1-1.86-1.89-3.7-2.75-5.53,3.22.87,6.42,1.91,9.47,2.91s6,2,8.73,2.74c5.37,1.4,9.68,1.63,11.94-1.2-.95-3.29-6.15-7.24-13.05-11.58-1.72-1.08-3.57-2.21-5.45-3.31l-5.78-3.34C447.55,803.5,443.51,801.18,439.68,798.82Z"/><path class="cls-4" d="M661.85,868.65a25.63,25.63,0,0,1,6.92-19c-9-.26-19.26-4.36-29.36-8.45s-20.16-8.2-29-8.46c6.66-7.35,4-15.7-4.13-24.52a108.58,108.58,0,0,0-15.64-13.46c-6.25-4.57-13.3-9.14-20.72-13.68s-15.2-9-22.86-13.44-15.19-8.65-22.15-12.78-13.3-8-18.59-11.78-9.51-7.31-12.16-10.57c-14.34-14.22-37.69-26.58-62.7-37.83S379.79,673.59,359,662.92c-4.61,1.12-6.61,3.15-9.71,4.79a19.66,19.66,0,0,1-6,2,37.18,37.18,0,0,1-4.46.48c-1.71.12-3.67.16-5.93.09a67.58,67.58,0,0,0,8,3.26,64.56,64.56,0,0,0,8.65,2.31A96.33,96.33,0,0,0,369,677.35c2.66-.07,5.32-.15,8.07-.4-2.76.25-5.43.36-8.07.4s-5.08,0-7.63,0-5.12-.08-7.74-.19c-5.25-.2-10.72-.64-16.74-1,4,.87,6.58,2.41,5.29,4.31a15.88,15.88,0,0,1-3.75,1.14,26.06,26.06,0,0,1-4.13.47l3.57,1.74,3.53,1.82,6.92,3.67c4.54,2.46,8.94,4.89,13.13,7.4a180.78,180.78,0,0,1,22.24,15.69c12.61,10.92,20.1,22.05,19.16,34l10.7,3.51c21.7,7.19,35.63,14.12,43.63,20.33,4,3.1,6.5,6,7.76,8.81a9.82,9.82,0,0,1,.27,8c26.63,7.17,55.25,16.06,74.12,25,30.29,16.52,56.57,34.75,84.23,53.24,5.54,0,11,0,16.34-.1s10.56-.38,15.46-.83C657.38,865.77,659.57,867.21,661.85,868.65Z"/><path class="cls-5" d="M2162,656.75a43.09,43.09,0,0,0-14.44-6.18,80.9,80.9,0,0,0-9-1.68c-3.24-.5-6.64-.86-10.16-1.09q-2.64-.17-5.37-.25l-5.65-.19c-3.85-.1-7.76,0-11.83.06s-8.33.17-12.59.43-8.8.39-13.26.77-9.22.6-13.87,1.09-9.58.82-14.44,1.37q-3.72.33-7.45.76c-2.49.28-5,.63-7.54.88-5.12.55-10.19,1.32-15.48,2-2.63.35-5.24.75-7.88,1.15s-5.37.75-8,1.18l-4,.67-4.1.63q-4.1.66-8.21,1.43c-11.1,1.86-22.28,4.2-33.79,6.74-5.92,1.12-12,2-18,3l-18.44,2.59c-12.37,1.56-24.78,3-37.36,4.13-25.13,2.31-50.72,3.78-76.84,4.6-52.24,1.67-106.65.62-164.21-1,8.29,7.87,9.35,16.48,2.05,24.49s-23,15.41-48.32,20.73c-12.95,2.75-31.08.56-47.29-1.41s-30.58-3.9-36.09-.85c-60.69,12.34-76.54,27.13-149.87,34.31,12.55,5.16,14,16.42,29,17.23,40.12,11.13,91.35,16.16,152.15,3.82,17.32-3.53,52.75,16.29,11.72,20.76,12.82,1.25,24.6,1.78,35.67,1.78s21.43-.5,31.4-1.17c19.93-1.3,38.27-3.37,57.61-3.8,13.71-.71,24.57-.73,33.18-.36s14.94,1.38,19.58,2.7c9.28,2.69,11.79,7.19,12,12.49s-1.93,11.42-1.82,17.36,2.46,11.71,11.76,16.22c6.12,5,14.8,8.35,25.31,10.29a980.76,980.76,0,0,0,112.38-35.94c4.52-1.7,9-3.57,13.5-5.34s9-3.55,13.4-5.4l13.3-5.63,6.62-2.8c2.2-.93,4.4-1.95,6.59-2.91q26.32-11.53,52.17-24.13a41.16,41.16,0,0,1,6.55-2.48c2.33-.67,4.77-1.31,7.32-1.81s5.18-.94,7.86-1.32l8.12-1.22c2.73-.4,5.46-.81,8.15-1.26s5.31-1.06,7.85-1.7a72.92,72.92,0,0,0,7.3-2.21,40.87,40.87,0,0,0,6.39-3.11,309.09,309.09,0,0,0,45.72-25.87,265.35,265.35,0,0,0,38.25-31.66q3.84-4.06,7.21-7.87c1.11-1.28,2.21-2.49,3.22-3.75s2-2.51,2.87-3.72q2.73-3.63,4.9-6.88l1-1.6.92-1.6q.88-1.57,1.62-3c2-3.87,3.07-7.09,3.24-9.54S2163.89,657.45,2162,656.75Z"/><path class="cls-6" d="M1184.53,682.55q7.44-1.79,15.19-3.26t15.8-2.77c10.71-1.67,21.75-3,33-4l-50.24-10.6L1149.1,651c-8.88,3.46-18.15,6.82-26.42,10.27C1147.59,665,1169.27,671.41,1184.53,682.55Z"/><path class="cls-6" d="M1679.64,865c9.43-17.57-21.16-18.54-44.18-33-26.19,5.53-48.35,7.33-67.58,5.39s-35.6-7.25-50.17-15.86c-2.38,4.34-23.71.95-32.37,2.71,2.38-4.34-16.49-12.08.89-15.61-17.38,3.53-36.27-4.21-47.35,1.9-27.56-6,22.15-12.21,3.29-19.95-49,11.87-93.35,8.33-121-1s-38.47-24.46-20.62-35.79c13.54-10.45,39.59-15.74,55.47-30.52s64.57-5.43,100.74-1.21c-10.17-9.5-61.28-14.52-32.86-24.16,27.56-5.61,58.12-13,76.85-21.81-75,1.36-166.22,12.23-206.44,5.79-15.47-3.12-30.68-6.27-45.8-9.43-11.28,1.05-22.32,2.38-33,4q-8,1.25-15.8,2.77t-15.19,3.26c-15.26-11.14-36.93-17.58-61.85-21.26-10.16,4.21-18.86,8.47-23.45,13.22-12.12,8,4.18,12.68,26.54,17s50.79,8.36,62.09,15.75c-24.17,1.88-43.22,5.13-57.8,9.3s-24.68,9.3-30.83,15c-12.29,11.39-8.7,25.12,7.47,37.5,22.41,15.06,47.52,25.66,87.6,37,21.26,3.45,51.23,5,77.35-.23-8.72,1.76-34.82,7.05-28.55,9.63,48.83,9.37,69.17,28.37,134,23-2.42,4.34,3.9,6.92-13.52,10.44,34.83-7,14.09,16.43,48.94,9.37,16.48,12.08,10.78,36.37,58.24,34.47a188.76,188.76,0,0,1,32.67-.12c17-3.52,34.73-6.65,53.65-9.11,9.46-1.24,19.21-2.29,29.34-3.17s20.61-1.65,31.62-2.19a807.21,807.21,0,0,0,91.68-9.68C1694.73,868.84,1681.81,868.62,1679.64,865Z"/><path class="cls-7" d="M1752.66,844.11c-9.3-4.52-11.64-10.3-11.76-16.22s2-12.05,1.82-17.36-2.7-9.8-12-12.49c-4.64-1.32-11-2.3-19.58-2.7s-19.47-.34-33.18.36c-19.34.42-37.68,2.49-57.61,3.8-10,.67-20.32,1.15-31.4,1.17s-22.85-.53-35.67-1.78c41-4.47,5.61-24.29-11.72-20.76-60.79,12.34-112,7.31-152.15-3.82-15-.82-16.43-12.08-29-17.23,73.33-7.19,89.18-22,149.87-34.31,5.52-3.05,19.87-1.15,36.09.85s34.34,4.16,47.29,1.41c25.35-5.32,41-12.71,48.32-20.73s6.24-16.62-2.05-24.49l-62.5-1.86q-31.87-1.08-64.56-2c-4,0-8,.08-12.13.16-18.73,8.86-49.29,16.2-76.85,21.81-28.42,9.64,22.69,14.66,32.86,24.16-36.17-4.21-84.86-13.58-100.74,1.21s-41.93,20.07-55.47,30.52c-17.85,11.33-7,26.46,20.62,35.79s72,12.87,121,1c18.87,7.73-30.85,14-3.29,19.95,11.08-6.11,30,1.63,47.35-1.9-17.37,3.53,1.49,11.27-.89,15.61,8.66-1.76,30,1.63,32.38-2.71,14.57,8.62,30.93,14,50.17,15.86s41.38.14,67.58-5.39c23,14.45,53.61,15.42,44.18,33,2.17,3.61,15.08,3.82,30,3.49,23.29-3.75,46.12-8.6,68.31-14.11C1767.47,852.46,1758.79,849.11,1752.66,844.11Z"/><path class="cls-8" d="M1470.7,892.78c-47.46,1.9-41.76-22.39-58.24-34.47-34.86,7.05-14.11-16.42-48.94-9.37,17.43-3.53,11.1-6.1,13.52-10.44-64.79,5.42-85.13-13.58-134-23-6.26-2.58,19.84-7.87,28.55-9.63-26.12,5.28-56.09,3.69-77.35.23-40.08-11.36-65.18-22-87.6-37-16.17-12.38-19.76-26.1-7.47-37.5,6.15-5.71,16.25-10.82,30.83-15s33.63-7.42,57.8-9.3c-11.3-7.39-39.76-11.38-62.09-15.75s-38.65-9-26.54-17c4.59-4.76,13.29-9,23.45-13.22-7.61-1.09-15.43-2-23.59-2.61s-16.45-1.12-25-1.4-17.2-.43-25.92-.54q-6.56-.06-13.2,0t-13.25,0c-35.46.34-71.1,1-102.65-.42-2.73,6-1.29,11.34,8.25,14.63,18,7.41,29,14.26,36,21a45.64,45.64,0,0,1,7.94,10.17,64.7,64.7,0,0,1,4.6,10.12c5.09,13.52,7.94,27.57,38.28,42,6.07,2.87,18,5.79,29.26,8.2s21.75,4.42,24.85,5.83c14.19,9,13,17.84,11.67,26.71s-2.6,17.72,11.86,26.69c-1.26,2.14,10.7,1.91,23.42,2s26.2.38,28.12,3.84c16.4,12.24,6.62,29.54,43,34,12.43,1.8,23.73,3.66,34.14,5.77s19.88,4.38,28.6,6.81a286.45,286.45,0,0,1,44.38,16.22c25.15,11.71,43.09,24.89,63.86,37.5,50.51-10.53,95-24.66,146-35.23A188.76,188.76,0,0,0,1470.7,892.78Z"/><path class="cls-9" d="M451.75,486.25c-11.86-1-23.57-1.77-34.75-2.86l-4.18-.4-4.21-.35-8.32-.75c-5.5-.51-10.91-1.07-16.27-1.63,6.12,1.64,12,3.32,17.67,5s11.16,3.34,16.31,5.16c10.35,3.58,20,7.06,28.75,10.84a315.82,315.82,0,0,1,44.69,22.84c6.21,3.93,11.91,7.86,17.2,11.81q2,1.48,3.89,3c1.26,1,2.47,2,3.68,3q3.6,3,6.94,6c4.45,4,8.6,8.06,12.45,12.15s7.41,8.25,10.82,12.42c4.33,5.67,41.45,14.06,78,24.69,9.15,2.64,18.21,5.42,26.89,8.29s16.71,5.83,23.88,8.87a113.15,113.15,0,0,1,18.13,9.35c4.8,3.21,8.13,6.45,9.64,9.79-3.28,3.7-11.47,5.4-22.9,5.54s-26-1.23-42.17-3.61c28.33,14.1,48.44,27.43,64.24,40.18s27.28,25,38,36.88c5.35,6,10.51,11.85,15.92,17.66s11,11.63,17.4,17.29a194.78,194.78,0,0,0,21.6,16.9c4.11,2.77,8.5,5.54,13.23,8.3s9.85,5.38,15.36,8.06l16.39,8c5.42,2.67,10.77,5.4,16.06,8.13C866.7,802.1,877,807.63,886.94,813s19.45,10.82,28.47,16.34c4.51,2.73,8.88,5.4,13.12,8.14s8.33,5.5,12.26,8.18c7.85,5.38,15.1,10.9,21.56,16.28a164.53,164.53,0,0,1,17,16.19c9.65,10.68,15.81,21.31,17.48,31.6.39,4.44,4.81,8.6,12.08,12.56a111.79,111.79,0,0,0,12.92,5.84c4.89,1.87,10.35,3.71,16.23,5.53,23.47,7.25,53.29,13.81,79.76,20.88,21.2-4.09,42.09-8.42,62.54-12.3-29.11-10.8-53.84-21.62-60.36-33.39a96.32,96.32,0,0,0-17.55-27.32,111.47,111.47,0,0,0-13.2-12.25,148.79,148.79,0,0,0-16.84-11.5c-25.06-14.93-61.17-27.92-113.23-42.35-16.89-5.62-18.1-15.92-17.46-26s3.11-19.85-5.88-24.55C901.31,744,877,724.12,856.43,704.06q-3.86-3.75-7.56-7.49c-2.47-2.49-4.91-5.07-7.3-7.59-4.8-5.08-9.46-10.15-14.08-15.29-9.29-10.43-18.34-20.89-28.05-32.1-3.6-5.3-9.6-11.58-17.39-18.66-3.89-3.53-8.18-7.18-12.85-11s-9.73-7.8-15-11.82c-20.64-5.42-41.57-10.41-62.89-16.07-10.56-2.79-21.38-5.79-32-9q-8.07-2.42-16.12-5c-2.68-.88-5.35-1.77-8-2.69s-5.4-1.86-8.1-2.82a406.43,406.43,0,0,1-41.14-10.67c-5.75-1.83-10.93-3.7-15.64-5.58-2.36-.94-4.58-1.9-6.71-2.85s-4.2-1.89-6.14-2.85A122.83,122.83,0,0,1,538.32,531,128.12,128.12,0,0,1,525,519.59c-7.7-7.5-14.33-14.47-24.64-20.41a82.19,82.19,0,0,0-19.23-7.8c-3.93-1.11-8.26-2.12-13.09-3S457.71,486.82,451.75,486.25Z"/><path class="cls-10" d="M1186.34,861.59c-36.4-4.47-26.62-21.77-43-34-1.92-3.47-15.4-3.8-28.12-3.84s-24.67.17-23.42-2c-14.46-9-13.14-17.83-11.86-26.69s2.52-17.7-11.67-26.71c-3.09-1.41-13.62-3.35-24.85-5.83s-23.19-5.33-29.26-8.2c-30.34-14.47-33.18-28.52-38.28-42a64.7,64.7,0,0,0-4.6-10.12A45.64,45.64,0,0,0,963.33,692c-7-6.78-17.94-13.63-36-21-9.54-3.29-11-8.6-8.25-14.63h-.57c5.62-5.66-1.41-9.54-10.84-12.36a213.43,213.43,0,0,0-26.22-5.18c-6-.88-11.51-1.93-16.66-2.93-2.58-.51-5.05-1-7.46-1.55s-4.76-1.14-7-1.72c-4.54-1.16-8.8-2.33-12.88-3.54s-8-2.58-11.87-3.91S818,622.46,814.2,621l-11.5-4.53c-7.78-3.05-16.12-6.51-25.65-10.17l-11.39-3.18q-5.73-1.56-11.47-3c5.29,4,10.32,8,15,11.82s9,7.47,12.85,11c7.79,7.08,13.78,13.36,17.39,18.66,9.71,11.21,18.76,21.67,28.05,32.1,4.62,5.14,9.28,10.2,14.08,15.29,2.4,2.53,4.83,5.11,7.3,7.59s5,5,7.56,7.49c20.57,20.06,44.88,40,79.4,60.83,9,4.7,6.53,14.49,5.88,24.55s.57,20.37,17.46,26c52.06,14.43,88.18,27.42,113.23,42.35a148.79,148.79,0,0,1,16.84,11.5,111.47,111.47,0,0,1,13.2,12.25A96.32,96.32,0,0,1,1120,908.84c6.52,11.77,31.25,22.59,60.36,33.39,17.3-3.24,34.26-6.39,50.92-8.78,17.44-3.53,42.69,6.79,42.69,6.79a676.89,676.89,0,0,0,83.35-12.35c-20.77-12.61-38.71-25.78-63.86-37.5a286.45,286.45,0,0,0-44.38-16.22c-8.72-2.44-18.2-4.72-28.6-6.81S1198.77,863.39,1186.34,861.59Z"/><path class="cls-11" d="M308,472.48l-10.62.88c-3.69.35-7.45.69-11.2,1s-7.49.56-11.13.76l-10.6.53a156.64,156.64,0,0,1-22.46.52c-2.67-.21-5-.4-6.92-.71a43.91,43.91,0,0,1-5.13-1.11c-6-1.67-9.32-3.9-18.78-3.85l8.08,2.19-6.37-.11c-2.13,0-4.26,0-6.42,0,2.43,1,4.7,2.22,6.86,3.39s4.19,2.35,6.08,3.55a59.23,59.23,0,0,1,9.63,7.39c5.21,5.07,7.86,10.42,7.3,16.14,3-.1,5.81-.06,8.6,0s5.5.16,8.13.29c5.26.26,10.18.65,14.63,1.2,8.83,1.26,15.77,3.21,20,5.9,28.63,18.82,48.13,39.28,78.85,59.87a415.56,415.56,0,0,0,56.35,31.49c22.9,10.9,50.8,22.17,85.58,34.56a75.7,75.7,0,0,1,9.06,3.65,37.93,37.93,0,0,1,6.29,3.88,17,17,0,0,1,6.17,8.22c1.83,5.69-.14,11.81-1.39,18.41-2.52,13.23-2.09,28.17,36.11,45.94,25.43,11.85,77.39,24.85,81.87,40.09.55,9.46-10.59,16.68-15.45,24.56s-3.54,16.43,22.17,28.56c32.66,14.27,64,28.82,93.26,43S803,880.63,827,893.78c11.94,6.66,23,13,33,19.36,5,3.15,9.67,6.22,14.08,9.33s8.52,6.22,12.28,9.22a123.67,123.67,0,0,1,18.66,18c4.81,5.9,8.19,11.76,10,17.56,30.61,5.7,64.28,6,98.7,3,4.32-.35,8.63-.78,12.95-1.25s8.66-1,13-1.51c8.68-1.1,17.37-2.37,26.11-3.71,17.38-2.77,34.85-5.94,52.08-9.3-26.46-7.07-56.29-13.63-79.76-20.88-5.88-1.82-11.34-3.66-16.23-5.53a111.79,111.79,0,0,1-12.92-5.84c-7.27-4-11.69-8.12-12.08-12.56-1.67-10.29-7.84-20.92-17.48-31.6a164.53,164.53,0,0,0-17-16.19c-6.46-5.38-13.71-10.9-21.56-16.28-3.92-2.68-8-5.47-12.26-8.18s-8.61-5.41-13.12-8.14c-9-5.52-18.54-10.84-28.47-16.34s-20.24-10.9-30.84-16.23c-5.29-2.73-10.64-5.46-16.06-8.13l-16.39-8c-5.5-2.68-10.61-5.33-15.36-8.06s-9.13-5.53-13.23-8.3a194.78,194.78,0,0,1-21.6-16.9c-6.35-5.66-12-11.47-17.4-17.29s-10.56-11.67-15.92-17.66c-10.71-11.91-22.19-24.14-38-36.88s-35.91-26.08-64.24-40.18c16.12,2.38,30.78,3.78,42.17,3.61s19.62-1.84,22.9-5.54c-1.51-3.35-4.84-6.59-9.64-9.79a113.15,113.15,0,0,0-18.13-9.35c-7.17-3-15.31-6-23.88-8.87s-17.73-5.64-26.89-8.29c-36.54-10.63-73.65-19-78-24.69-3.42-4.18-7-8.31-10.82-12.42s-8-8.12-12.45-12.15q-3.34-3-6.94-6c-1.2-1-2.42-2-3.68-3s-2.57-2-3.89-3c-5.29-3.94-11-7.88-17.2-11.81a315.82,315.82,0,0,0-44.69-22.84C438,497.46,428.36,494,418,490.4c-5.16-1.81-10.64-3.48-16.31-5.16s-11.55-3.36-17.67-5q-9.87-.89-19.44-1.92l-9.53-1-9.53-.94c-6.32-.64-12.55-1.35-18.77-2S314.24,473.13,308,472.48Z"/><path class="cls-3" d="M653.31,809.69c-25.71-12.14-27-20.68-22.17-28.56s16-15.1,15.45-24.56c-4.48-15.24-56.44-28.24-81.87-40.09-38.2-17.77-38.63-32.71-36.11-45.94,1.25-6.6,3.22-12.72,1.39-18.41a17,17,0,0,0-6.17-8.22,37.93,37.93,0,0,0-6.29-3.88,75.7,75.7,0,0,0-9.06-3.65c-34.78-12.39-62.68-23.66-85.58-34.56a415.56,415.56,0,0,1-56.35-31.49c-30.72-20.59-50.22-41-78.85-59.87-4.2-2.69-11.14-4.64-20-5.9-4.45-.55-9.37-.94-14.63-1.2-2.63-.13-5.35-.22-8.13-.29s-5.64-.11-8.6,0c-.45,4.52-2.72,9.26-7.57,14.3-1.34,2.24,1.82,4.47,7.7,6.71,1.47.57,3.12,1.1,4.89,1.71s3.68,1.23,5.7,1.85c4.05,1.24,8.57,2.5,13.33,3.78l7.31,1.92c2.48.66,5,1.41,7.47,2.11l15,4.3c2.45.73,4.88,1.4,7.21,2.18s4.6,1.53,6.78,2.29c4.36,1.52,8.37,3,11.85,4.45,7.77,8.86,2.29,15.89-9.31,22a103.67,103.67,0,0,1-9.78,4.41c-3.57,1.4-7.48,3-11.54,4.38-8.14,2.93-17,5.57-25.83,8.69l-15.94,7.54a12.41,12.41,0,0,0-1.95-1.29c-4.6,1.79-9,3.57-13.1,5.35l8.89,2.64,4.35,1.34c1.44.46,2.85,1,4.26,1.47,5.63,2,11.06,4,16.23,6.07,2,0,4,.08,6.12.29s4.25.6,6.48,1.09l-6.59,1.14c14.18,6.49,26,13.23,33.86,21.09a54.91,54.91,0,0,0,11.49,10.26c2.3,1.56,4.77,3.16,7.39,4.72s5.4,3.06,8.3,4.53a126.57,126.57,0,0,1,16.45,1.28,37.84,37.84,0,0,0-12,.9C355,666.69,382,675.89,407.23,686.71s48.83,22.76,63.29,36.82c2.69,3.22,6.94,6.72,12.25,10.41s11.68,7.47,18.65,11.57c13.92,8.08,30.17,16.83,45,25.84s28.18,18.2,36.19,27,10.7,17.13,4.07,24.49c17.52.47,39.81,16.32,57.73,16.87a26,26,0,0,0-7,19c8.19,5.22,17.45,10.38,24.91,15.08s13.28,8.91,14.33,12.27c-2.51,2.74-7.28,2.28-13.23.61s-12.92-4.6-20.06-6.79c.93,1.91,1.89,3.82,2.93,5.75l4.61,2.75c2.2.4,4.42.76,6.64,1.06s4.49.54,6.72.74c4.46.39,8.85.57,13,.54,5.05-1.36,10.46-2.66,15.69-3.93s10.29-2.49,14.78-3.73c-2.27,2.5-6.36,4.37-11.66,5.64a86.06,86.06,0,0,1-18.81,2,132.79,132.79,0,0,0-14.45,4.61c8.88,5,18.07,10,28,14.87,5,2.44,9.95,4.89,15.22,7.27s10.68,4.75,16.25,7.09c4.81.34,9.69.59,14.23.65l-12.73,0q4.52,1.93,9.32,3.78c19.07.29,57.9.59,97.56-.72,22,20.61,51.37,33,84.22,39.09-1.77-5.8-5.15-11.66-10-17.56a123.67,123.67,0,0,0-18.66-18c-3.76-3-7.89-6.14-12.28-9.22S865,916.28,860,913.14c-10-6.38-21.09-12.7-33-19.36-23.94-13.15-51.17-26.88-80.39-41.09S686,824,653.31,809.69Z"/></g></g><path class="cls-12" d="M101,1087.34l9.88-388.59H146L221.79,1036,298,698.74h36.06l9.42,388.59H313.67l-7.35-309.84-72.81,309.84h-23L138.64,778.2l-7.35,309.14Z"/><path class="cls-12" d="M502.24,1085q-14.24,6.8-35.14,6.8T432,1085a51,51,0,0,1-22.39-20.62q-8.16-13.83-11.6-32.46T394.52,987V910.15q0-53,16.08-78.75t56.5-25.78q40.65,0,56.62,25.66t16,78.87V987q0,26.25-3.45,44.88t-11.6,32.46A51,51,0,0,1,502.24,1085Zm-35.14-19.69q10.34,0,17.46-3.87a31.32,31.32,0,0,0,11.14-9.73q4-5.86,6.09-16.64a159,159,0,0,0,2.64-20.63q.57-9.84.57-25.55V908.28q0-15.7-.57-25.55a159,159,0,0,0-2.64-20.62q-2.07-10.78-6.09-16.64a31.35,31.35,0,0,0-11.14-9.73q-7.12-3.87-17.46-3.87a44.3,44.3,0,0,0-15.16,2.34,23.27,23.27,0,0,0-10.57,7.62,49.25,49.25,0,0,0-6.66,11.25,61.11,61.11,0,0,0-3.79,15.59q-1.26,9.61-1.61,18.16T429,908.28V988.9q0,12.89.34,21.45t1.61,18.16a61.08,61.08,0,0,0,3.79,15.59,49.25,49.25,0,0,0,6.66,11.25,23.25,23.25,0,0,0,10.57,7.62A44.23,44.23,0,0,0,467.1,1065.31Z"/><path class="cls-12" d="M649.24,1091.79q-32.39,0-51.79-21.33t-22.17-57.66l28.94-8.91q2.76,31.64,14.24,46.52t32.16,14.88q17.92,0,28.25-10.78,9.87-10.31,9.88-27.66v-1.64q-.69-27.65-33.08-55.31l-37-32.11q-19.53-16.64-28.48-32.58-8.73-15.47-8.73-36.09,0-30.47,17.92-47.11,17.45-16.4,47.09-16.41,30.09,0,46.28,19.69t18,53.2l-24.35,8.2q-1.61-27.89-11.14-41.37t-27.45-13.48q-16.08,0-25.73,9.14-9.42,8.91-9.42,23.91,0,13.6,4.82,23.32t17.69,21l38.36,35.16q10.34,9.14,16.88,16.05a168,168,0,0,1,13.9,17.11,73.9,73.9,0,0,1,10.91,22,93.52,93.52,0,0,1,3.79,25.43q0,31.88-18.83,49.34T649.24,1091.79Z"/><path class="cls-12" d="M825.41,1091.79q-18.6,0-31.93-5.62t-21.13-14.65q-7.81-9-12.29-23.79a155.22,155.22,0,0,1-6-29.88q-1.5-15.12-1.49-35.74V917.42q0-30.23,3.22-50.27t11.37-34.34a48.43,48.43,0,0,1,22.28-20.74q14.13-6.44,35.72-6.45,17,0,29.4,4.22t20.1,11.6a51.75,51.75,0,0,1,12.17,18.87,105.24,105.24,0,0,1,6.2,24.26,226.63,226.63,0,0,1,1.72,29.88v13.13H862.85V894.45q0-35.62-8.27-49.1t-28.94-13.48q-23.43,0-31,17t-7.58,62.7v77.81q0,42.66,8.15,59.3t30.66,16.64a42,42,0,0,0,16.31-2.81,27.08,27.08,0,0,0,10.68-7.73q4-4.92,6.32-13.59a99.23,99.23,0,0,0,3-18.4q.69-9.72.69-24.49V983h31.93v13.59a289.93,289.93,0,0,1-1.49,31.64,114.62,114.62,0,0,1-6,25.9q-4.48,12.54-11.94,20.39t-20.1,12.54Q842.63,1091.79,825.41,1091.79Z"/><path class="cls-12" d="M1043.15,1085q-14.24,6.8-35.14,6.8t-35.14-6.8a51,51,0,0,1-22.39-20.62q-8.16-13.83-11.6-32.46T935.43,987V910.15q0-53,16.08-78.75t56.5-25.78q40.65,0,56.62,25.66t16,78.87V987q0,26.25-3.45,44.88t-11.6,32.46A51,51,0,0,1,1043.15,1085ZM1008,1065.31q10.34,0,17.46-3.87a31.32,31.32,0,0,0,11.14-9.73q4-5.86,6.09-16.64a159,159,0,0,0,2.64-20.63q.57-9.84.57-25.55V908.28q0-15.7-.57-25.55a159,159,0,0,0-2.64-20.62q-2.07-10.78-6.09-16.64a31.35,31.35,0,0,0-11.14-9.73q-7.12-3.87-17.46-3.87a44.3,44.3,0,0,0-15.16,2.34,23.27,23.27,0,0,0-10.57,7.62,49.25,49.25,0,0,0-6.66,11.25,61.11,61.11,0,0,0-3.79,15.59q-1.26,9.61-1.61,18.16t-.34,21.45V988.9q0,12.89.34,21.45t1.61,18.16a61.08,61.08,0,0,0,3.79,15.59,49.25,49.25,0,0,0,6.66,11.25,23.25,23.25,0,0,0,10.57,7.62A44.23,44.23,0,0,0,1008,1065.31Z"/><path class="cls-12" d="M1160.75,1087.34l-44.33-277.5h29.4l34,231.8,42.72-231.8h29.63l43.18,230.86,32.84-230.86h29.17l-43.87,277.5h-32.39l-43.18-225.7-42.49,225.7Z"/><path class="cls-12" d="M1405.14,1087.34V698.74h83.38q23.2,0,41,5.39t29.51,15a73.9,73.9,0,0,1,19.06,24.14,115.42,115.42,0,0,1,10.45,31.41,212.66,212.66,0,0,1,3.1,38.2V967.34q0,28.36-5.05,49.69a106.41,106.41,0,0,1-16.54,37.5q-11.49,16.17-31.12,24.49t-47.66,8.32Zm36.06-27.42h48q17.68,0,30-5t19.29-12.89q7-7.85,10.91-21.45a135,135,0,0,0,4.94-26.6q1-13,1-32.23V816.64a288.53,288.53,0,0,0-1.49-31.87,106.94,106.94,0,0,0-5.74-24.73q-4.25-11.6-11.71-18.52t-19.52-10.78q-12.06-3.87-28.83-3.87H1441.2Z"/><path class="cls-12" d="M1646.08,1087.34V809.84h34.45V848q12.4-21.09,29.06-31.17t33.65-10.08a53.62,53.62,0,0,1,6,.23v38a42.88,42.88,0,0,0-16.54-3q-33.08,0-52.14,32.34v213Z"/><path class="cls-12" d="M1787.34,771.64V723.82H1822v47.81Zm0,315.7V809.84h34.45v277.5Z"/><path class="cls-12" d="M1920.79,1087.34l-59.26-277.5h34.91l44.33,237,43.64-237h33.53l-56.5,277.5Z"/><path class="cls-12" d="M2120.85,1091.79q-39,0-56.27-24.61T2047.35,983V913q0-40.55,8.15-64.34t23.89-33.4q15.73-9.61,41.69-9.61,17.23,0,29.4,4.57a53.3,53.3,0,0,1,20.21,13q8,8.44,12.75,22.85a155.13,155.13,0,0,1,6.55,31.88,410.63,410.63,0,0,1,1.84,42.07l-.23,25.08H2081.8v41.48q0,43.13,8.15,60.94t30.66,17.81q17.92,0,27.56-11.6t9.65-42.07V992.42h33.76v15.47q0,40.31-16.54,62.11T2120.85,1091.79Zm-39-166.88h76v-23q0-14.53-.69-24.14a125.24,125.24,0,0,0-2.87-19.1q-2.19-9.49-6.09-14.88a27.72,27.72,0,0,0-10.79-8.67,38.2,38.2,0,0,0-16.54-3.28q-21.82,0-30.43,15.47t-8.61,58.83Z"/><path class="cls-12" d="M2129.52,443s-5.2,12.29-4.19,14.74-17.06-.87-17.06-.87S2109.14,446.37,2129.52,443Z"/><path class="cls-12" d="M2161.28,611.55s-17.28,3-32.41-4.93c-21.82-11.41-22.14-36.08-22.19-49.44,0-8.74,1.47-23.85,11.82-41.55-30,42-24.94,81.53-.75,93.94C2121.46,611.48,2134.83,617.47,2161.28,611.55Z"/><path class="cls-12" d="M2178.74,436.61s43.69,77.1,22.56,156.8a361.55,361.55,0,0,0,.88-37c-.29-10.57-.67-24.58-3.45-40.89-3.86-22.68-9.91-58.23-37.5-82a88,88,0,0,0-14.53-10.13Z"/><path class="cls-12" d="M1781.58,426.33a148.43,148.43,0,1,1-105,43.48,147.46,147.46,0,0,1,105-43.48m0-17A165.44,165.44,0,1,0,1947,574.76a165.44,165.44,0,0,0-165.44-165.44Z"/><circle class="cls-12" cx="1781.58" cy="574.76" r="125.52"/><path class="cls-12" d="M1907.1,432s83.36,38.46,59.83,228.46c0,0,150.39-8,156.13-12.63,0,0,13.2-5.17,25.83-24.68,0,0,39.61-14.35,59.7-14.92,0,0,2.3-5.17,0-6.89,0,0-96.44,23-130.3-2.3,0,0,10.91,16.65,41.9,23,0,0-107.33,5.75-127.18,2.8-1.88-.28-3-.63-3.12-1.08C1988.16,618.58,2003.4,482,1907.1,432Z"/><path class="cls-12" d="M2023.18,459s3.44,2.3,10.33,10.91a194.52,194.52,0,0,1-59.7,0,46.81,46.81,0,0,1-3.95-5,32.8,32.8,0,0,1-5.24-11S2014,460.72,2023.18,459Z"/><path class="cls-12" d="M2178.74,436.61s-97.35-39.39-156.71-27.29c0,0-7.14,3.55,31.57,57.71,0,0,67.73,10.91,97,8.61,0,0,8-2.3,8.61-31l-9.18-9.18s5.68,25-4.59,32.72-87.09-8-87.09-8l-24.84-39.61S2101.82,413.08,2178.74,436.61Z"/><path class="cls-12" d="M2145.65,445.81a1.1,1.1,0,0,0-2.2-.06v.12a33.52,33.52,0,0,1-5.59,14.74,1.11,1.11,0,0,1-.69.46,111.49,111.49,0,0,1-18.06,2.4,106.33,106.33,0,0,1-31.82-3.14q-1.21-.31-2.35-.65a1.11,1.11,0,0,1-.55-.37q-3.79-4.73-7.6-10c-4.89-6.76-9.18-13.38-12.94-19.71a1.11,1.11,0,0,1,1.07-1.66c44.06,4.27,63,6.4,71.35,7.53.53.07,2.36.32,2.37.3.12-.56-59.91-13.61-82.46-12.5a1.11,1.11,0,0,0-.83,1.76l26.24,36.34a1.1,1.1,0,0,0,.64.43,143,143,0,0,0,58.14,1.77,1.09,1.09,0,0,0,.76-.53C2142.16,461.21,2145.92,454,2145.65,445.81Z"/><path class="cls-12" d="M2098.16,436.54h-11.56l-6.65,7.92-12.29-14.28,18.07,27.61S2087,444.64,2098.16,436.54Z"/><path class="cls-12" d="M1577,345.57s273.09-73.73,445.07,63.75c0,0,54.16-4.11,156.71,27.29C2178.74,436.61,1991.56,243.74,1577,345.57Z"/><path class="cls-12" d="M1595.06,668.33s-44.82-261.62,186.52-280.22c0,0-186.52-48.36-211.32,230.63,0,0-596.4-23.56-591.44-27.28,0,0-210.79-17.25-225.67-45.2,0,0-80.6-117.44-94.23-161.35S673.8,549.3,624.2,601.37c0,0,5,41.34,0,59.11C624.2,660.48,1467.34,651,1595.06,668.33Z"/><path class="cls-12" d="M422.25,427.63a145.6,145.6,0,1,1-103,42.64,144.65,144.65,0,0,1,103-42.64m0-19.84A165.44,165.44,0,1,0,587.69,573.23,165.44,165.44,0,0,0,422.25,407.79Z"/><circle class="cls-12" cx="422.25" cy="573.23" r="125.52"/><path class="cls-12" d="M264.64,288.91s-67.23,16.5-95.84,14c0,0,2.86-31.14-32.9-55.45,0,0-27.18-20,220.28,11.44,0,0-133-14.3-131.6-7.15C224.59,251.72,221.73,260.3,264.64,288.91Z"/><path class="cls-12" d="M1699.34,303.14S1429,153,1381.79,150.16l11.44-5.72s-170.22-62.94-569.3,0c0,0-412,77.24-559.29,144.47,0,0,197.4-27.18,383.35-7.15,0,0-13.62-51.65,198.42-92.81q15.68-3,31.58-4.74c50.47-5.39,215.12-21.32,349.71-15.56a490.61,490.61,0,0,1,198,51c68,33.93,152.53,84.48,151.29,125.9C1577,345.57,1633.54,301.64,1699.34,303.14Z"/><path class="cls-12" d="M1532.3,345.57s-366.67,29.64-612.5,51.32c0,0-4.17-6.25-16.67-41.67C903.13,355.22,1487.64,345.57,1532.3,345.57Z"/><path class="cls-12" d="M861.47,169.8S949,526.05,1013.55,630.22H955.22S876.05,417.72,861.47,169.8Z"/><path class="cls-12" d="M648,281.75s874.07,34.18,929,34.14V298.82S672.49,284.12,648,281.75Z"/><path class="cls-12" d="M2178.74,436.61s-121.89-153.09-479.4-133.47c0,0,255.82-14.27,322.69,106.18C2022,409.32,2082.55,376.45,2178.74,436.61Z"/><path class="cls-12" d="M2129.92,610.82s-17.28,3.85-32.41-6.36c-21.82-14.72-22.14-46.53-22.19-63.76a128.24,128.24,0,0,1,11.82-53.58c-30,54.22-24.94,105.15-.75,121.16C2090.09,610.72,2103.46,618.45,2129.92,610.82Z"/><path class="cls-12" d="M615.63,536.47S580.41,386.75,443.42,377.88c-108.88-7.05-205.19,72.36-219.11,180.58a203.59,203.59,0,0,0,8,88.43S86.47,676.05,101.05,480.22c0,0,6.93,103.79,64.58,112.5,0,0,0-180.79,201-230.34a177.31,177.31,0,0,1,95.86,2.9C514.15,381.63,585.43,424.45,615.63,536.47Z"/><path class="cls-12" d="M711.52,315.89s-340.88-44.34-492.25,15.25c0,0-41.33-17.2-50.46-28.27C168.8,302.88,574.45,261.3,711.52,315.89Z"/><path class="cls-12" d="M179.76,416.53s.89,8.88,5.33,13.32c0,0,47.31,17.62,71.71,14.21L273,424.52S176.21,423.63,179.76,416.53Z"/></svg>