<?xml version="1.0" encoding="utf-8"?>
<!-- Generator: Adobe Illustrator 15.0.0, SVG Export Plug-In . SVG Version: 6.00 Build 0)  -->
<!DOCTYPE svg PUBLIC "-//W3C//DTD SVG 1.1//EN" "http://www.w3.org/Graphics/SVG/1.1/DTD/svg11.dtd">
<svg version="1.1" id="Слой_1" xmlns="http://www.w3.org/2000/svg" xmlns:xlink="http://www.w3.org/1999/xlink" x="0px" y="0px"
	 width="760px" height="400px" viewBox="0 0 760 400" style="enable-background:new 0 0 760 400;" xml:space="preserve">
<style type="text/css">
<![CDATA[
	.st0{fill:#4D4D4D;}
	.st1{fill:#4DD0E1;}
	.st2{font-family:'NautilusscriptSwashes';}
	.st3{letter-spacing:-3;}
	.st4{font-size:120;}
	.st5{fill:none;}
	.st6{font-size:24;}
	.st7{font-size:72;}
	.st8{font-family:'Raleway-Light';}
]]>
</style>
<rect x="-829.6" y="-524.3" class="st5" width="268.6" height="86.1"/>
<text transform="matrix(1 0 0 1 -829.5664 -472.6943)" class="st1 st2 st7">Ellgibug</text>
<rect x="-440.6" y="-573.2" class="st5" width="268.6" height="86.1"/>
<text transform="matrix(1 0 0 1 -440.5664 -521.6006)" class="st2 st7">EG</text>
<g>
	<path class="st1" d="M191,171.1c0.7,0.7,1,1.6,1,2.8c-1.1,9-10.9,21.8-29.3,38.4c-8.2,49.5-23,74.3-44.6,74.3
		c-10.4,0-22.2-5.8-35.4-17.5c-1-0.8-1.4-2-1.4-3.5c0-1,3.9-3.8,11.8-8.4c7.9-4.6,18.4-11,31.5-19.2c13.1-8.2,24.4-16.3,33.7-24.1
		c0.5-4.6,0.7-9.5,0.7-14.5c0-4.6-0.3-10.2-0.9-16.6c-0.6-6.4-1.3-9.6-2.1-9.6l-14.9,39.2c-4.5,7-8,10.6-10.4,10.6
		c-3.6,0-6.6-2.8-9-8.5c-2.4-5.7-4.3-12.6-5.7-20.6c-1.4-8.1-2.9-16.2-4.4-24.2c-1.5-8.1-3.7-15-6.5-20.6c-2.8-5.7-6.3-8.5-10.4-8.5
		c-8.2,0-16.4,2.2-24.4,6.5c-8,4.4-14.5,10-19.5,17c-5,7-7.4,14-7.4,21.1c0,9,4.2,16.8,12.7,23.4c5.2,2.7,9.9,4.6,14.2,5.6
		c5.6,1.4,10,2,13.2,2c8.8,0,14.5-2.4,17-7.1c0.1-0.2,0.3-0.4,0.6-0.4c0.5,0,0.7,0.3,0.7,0.8c0.2,0.2,0.1,0.5-0.2,1.1
		c-3.9,8.2-11.2,12.4-22,12.4c-3.9,0-7.8-0.9-11.8-2.6c-3.8-1.5-7.4-3.6-10.8-6.4c-7-5.1-12.2-10.8-15.7-17.2
		c-3.5-6.3-5.2-12.8-5.2-19.4c0-5.7,1.4-11.2,4.2-16.6c2.8-5.4,6.7-10.1,11.6-14.2c5-4.1,11.1-7.4,18.4-9.8
		c7.3-2.5,15.2-3.7,23.7-3.7c5,0,9.4,1.4,13.1,4.3c3.7,2.9,6.5,6.6,8.6,11.2c2,4.6,3.8,9.7,5.2,15.2c1.4,5.5,2.5,11.1,3.4,16.6
		c0.8,5.6,1.7,10.6,2.5,15.2c0.8,4.6,1.9,8.3,3.2,11.2c1.4,2.9,3,4.3,5,4.3c1.4,0,2.5-0.6,3.5-1.9c1-1.2,2-3.2,3.1-5.8
		c1.1-2.6,1.9-4.4,2.4-5.3c0.9-1.4,2.1-4.6,3.5-9.6c1.5-5,2.8-9.5,3.9-13.7c1.1-4.2,1.7-6.3,1.8-6.3c-1.4,0-2-0.7-2-2.2
		c0-2.6,1.6-6.1,4.9-10.4c3.2-4.3,6.1-6.4,8.5-6.4c2.6,0,4,2.8,4,8.4c-1.2,19.3-3,36.4-5.3,51.5C178,196.3,187.3,183.5,191,171.1z
		 M113.1,276.7c11.3,0,21-5.5,29.3-16.4c8.2-11,13.4-25.6,15.6-43.8c-13.7,11.9-28.3,22.9-43.7,33.1c-15.5,10.1-25.1,15.2-29,15.2
		c-0.6,0-0.9-0.1-1-0.4c0.2,0.3,0.5,0.5,1,0.7s0.9,0.3,1.2,0.7C95.3,273,104.2,276.7,113.1,276.7z"/>
	<path class="st1" d="M193.5,209.9c-1.4,0-2.8-0.6-4.2-1.8c-2.4-3.4-3.6-7.4-3.6-12c0-1.7,0.6-5.1,1.8-10.3s2.1-9,2.7-11.5
		c0.3-1.3,0.6-2.2,0.7-2.7c0.1-0.5,0.1-0.7,0.1-0.7c-0.2,0-0.7,0.8-1.5,2.5c-0.8,1.7-1.8,3.6-2.9,5.9c-1.1,2.2-1.9,3.8-2.4,4.6
		c-0.4-0.6-0.5-1-0.4-1.4c3.8-9.8,6.3-15.4,7.4-16.9c0.6-2.3,1.6-4.6,3-6.7c1.4-2.2,2.7-3.2,4-3.2c2.2,0,4.2,1.9,5.9,5.6
		c1.7,3.8,2.5,9,2.5,15.8c0,6.9-0.8,12.9-2.5,18.1c1.8-1.1,4.4-4.4,7.8-10c3.4-5.5,5.8-9.8,7-13l0.1-0.1c0.5,0,0.7,0.4,0.7,1.3
		c0,1.8-2,6-5.9,12.7c-3.9,6.7-7.5,11.1-10.7,13.1C200.4,206.4,197.2,209.9,193.5,209.9z M196.5,197.7c-1-1-2-2.4-2.8-4.2
		c-0.8-1.8-1.5-3.6-2-5.6c-1.6,6.7-2.4,11.3-2.4,13.8c0,2,0.4,3,1.2,3C192.6,204.6,194.6,202.3,196.5,197.7z M196.7,163.5
		c-0.7,2.1-1.3,5.1-1.8,8.8c-0.2,1.3-0.2,4.9-0.2,10.9c0,4.2,0.4,7.3,1.3,9.4c0.2,0.5,0.8,1.4,1.7,2.8c1-3,1.7-7.7,2-13.9
		c0.2-3.2,0.2-5.4,0.2-6.7c0-8.1-0.9-12-2.6-11.6L196.7,163.5z"/>
	<path class="st1" d="M218.4,168.9l-2,5.5c-1.7,4.9-3.2,8.2-4.4,9.8c-0.7,1.3-1.5,1.9-2.3,1.9c-0.3,0-0.5-0.1-0.6-0.2
		c2.2-3.4,3.9-7.6,5.2-12.4c1.1-3.7,2-6.5,2.8-8.4c-0.3-0.1-1-0.3-1.9-0.6c-1-0.3-1.5-0.5-1.7-0.7c-0.2-0.1-0.5-0.4-0.8-0.8
		c-0.3-0.4-0.5-1-0.5-1.7c0-0.4,0.1-0.8,0.2-1.2c0.2-0.4,0.3-0.7,0.5-1c0.2-0.2,0.5-0.6,1-1.1c0.4-0.5,0.8-0.9,1-1.2
		c1.7-1.8,3.4-2.6,5.3-2.6c1.8,0,2.8,0.8,2.8,2.3v1.3c1.4,0,2,1.9,2,5.6c0,1.1-0.1,1.8-0.2,2.2l0.2,1.8v7c-0.1,0.7-0.2,1.9-0.2,3.5
		c-0.1,1.6-0.2,2.8-0.2,3.6c0.5,2.5,1.2,3.7,2,3.7c0.8,0,1.5-0.6,2-1.8c1.4-1.8,2.9-5.3,4.6-10.7c1.2-2.9,2.2-6.4,3-10.4
		c0.2-1.2,0.3-1.8,0.2-1.8h0.2l0.2-0.2c-0.2,0-0.2-0.1,0-0.2l1.8-1l0.8-0.2c0.6,0,1,0.2,1,0.7v2l-0.2,2.3c-0.9,2.9-1.6,6.3-2,10.3
		c-0.3,1.4-0.5,3.5-0.5,6.3c0,3.3,0.5,6.3,1.4,9.1c0,2.5,0.1,3.8,0.4,3.8c0.5,0,1-0.4,1.4-1.1l3.5-3.5l2.8-4.8
		c2.1-3.1,3.1-4.7,3.2-4.9l0.5,0.4v0.2l-0.3,0.2c0,0.8-0.3,1.3-0.8,1.5c-0.6,1.3-1.3,2.7-2.1,4.1s-1.4,2.5-1.9,3.4
		c-0.5,0.9-1.2,1.9-2.1,3.2s-1.5,2-1.9,2.4c-1.4,1.7-2.7,2.5-3.6,2.5c-3.1,0-4.6-2.8-4.6-8.3c0-4.7,0.3-9.2,1-13.4
		c-2.1,5.9-3.7,9.9-4.8,11.9c-2.1,3.8-4.4,5.9-6.8,6.1c-3.1,0.2-4.7-5.5-4.7-17.2C218.3,173.1,218.3,170.6,218.4,168.9z"/>
	<path class="st1" d="M279.2,178.7c0.8,0.6,0.1,3.4-2.1,8.4c-2.2,5-4.5,9.2-6.8,12.6c-4.1,5.4-7.4,8.2-9.8,8.2
		c-2.2,0-3.4-2.1-3.4-6.4c0-2.5,0.8-8.3,2.5-17.6c1.6-9.2,2.5-14.9,2.5-17.1c0-1-0.4-1.9-1.3-2.7c-0.8-0.8-1.7-1.3-2.6-1.7
		c-0.9-0.4-2.2-0.8-3.8-1.3c-1.8,7.1-3.7,12.9-5.5,17.4c-0.6,1.1-1.6,2.7-2.8,4.8c-0.9,1.4-1.5,2.1-1.8,2.3c-0.1,0-0.2,0-0.2,0h-0.5
		c3.8-9,5.8-13.8,6-14.4c1-3.7,1.6-7.3,1.6-10.9c-1.9-0.8-2.9-2.7-2.9-5.8c0-3.2,0.9-5.9,2.6-8.2c2-2.7,4.1-4.1,6.2-4.1
		c0.4,0,0.8,0.3,1.3,0.8c0.8,0.6,1.2,1.5,1.2,2.8c0,2-0.6,4.4-1.9,7.1c-0.3,0.8-0.8,2-1.6,3.5c-0.7,1.5-1.2,2.5-1.3,2.9
		c3.3,0.2,6.4,1,9.4,2.3c3,1.7,4.6,3.4,4.6,5.3c0,1.9-0.8,6.6-2.3,14c-1.5,7.4-2.3,11.6-2.3,12.7c0,2.6,0.6,4,1.8,4
		c1.4,0,3.5-2.2,6.3-6.5C275.1,186.7,277.4,182.6,279.2,178.7z"/>
	<path class="st1" d="M379.3,176.2c-3.7,12.7-12.2,22.5-25.4,29.3c0.7,1.5,1.1,3.1,1.1,4.7c0,5.2-1.8,9.6-5.5,13.3
		c-3.6,3.7-7.9,6.2-12.7,7.7c-4.8,1.4-9.8,2.2-14.9,2.2c-5.4,0-9.5-0.8-12.4-2.5c-2.9-1.7-4.3-4-4.3-6.8c0-2.4,1.7-4.4,5-5.9
		c3.3-1.5,8.7-3.3,16.1-5.3c7.4-2,13.5-4.1,18.4-6.2c-2.1-2.7-5.8-6.1-11.1-10.3c-5.3-4.1-10.4-7.9-15.2-11.2
		c-4.8-3.4-9.2-7.1-13-11.3c-3.8-4.2-5.8-7.8-5.8-11c0-4.6,1.7-8.6,5-12c3.3-3.4,7.5-6,12.5-7.6c5-1.6,10.4-2.5,16.1-2.5
		c9,0,16.7,2,23.1,6.1c6.4,4.1,9.7,9.8,9.7,17.3c0,6-4.1,9.8-12.2,11.5c-1.5,0.3-2.9,0.5-4.2,0.5c-1.6,0-3-0.3-4.1-0.8
		c-0.4-0.2-0.6-0.5-0.6-0.7c0-0.2,0.3-0.4,0.8-0.6c2.5-0.5,4.7-2.3,6.8-5.5c2-3.2,3.1-6.5,3.1-10c0-4-2.5-7.4-7.4-10.3
		c-4.9-2.9-10.5-4.3-16.6-4.3c-5.8,0-11.2,1.7-16,5c-4.8,3.4-7.3,7.8-7.3,13.3c0,2.5,1.9,5.5,5.6,8.9c3.8,3.5,8,6.8,12.8,9.8
		c4.8,3.1,9.7,6.7,14.9,10.8c5.2,4.1,8.8,7.8,11,11.1C364.5,196.2,373.4,187.3,379.3,176.2z M347.2,212.5c0-1-0.3-2.2-1-3.6
		c-4.7,1.8-10.4,3.6-17.2,5.2c-6.7,1.6-11.7,3-14.9,4.2c-3.2,1.2-4.9,2.5-4.9,4.1c0,1.8,1.4,3.1,4.1,4.1c2.8,1,5.8,1.4,9.2,1.4
		c3.5,0,7.1-0.6,10.8-1.7c3.7-1.2,6.9-3,9.7-5.4C345.9,218.4,347.2,215.6,347.2,212.5z"/>
	<path class="st1" d="M379.9,168.9l-2,5.5c-1.7,4.9-3.2,8.2-4.4,9.8c-0.7,1.3-1.5,1.9-2.3,1.9c-0.3,0-0.5-0.1-0.6-0.2
		c2.2-3.4,3.9-7.6,5.2-12.4c1.1-3.7,2-6.5,2.8-8.4c-0.3-0.1-1-0.3-1.9-0.6c-1-0.3-1.5-0.5-1.7-0.7c-0.2-0.1-0.5-0.4-0.8-0.8
		c-0.3-0.4-0.5-1-0.5-1.7c0-0.4,0.1-0.8,0.2-1.2c0.2-0.4,0.3-0.7,0.5-1c0.2-0.2,0.5-0.6,1-1.1c0.4-0.5,0.8-0.9,1-1.2
		c1.7-1.8,3.4-2.6,5.3-2.6c1.8,0,2.8,0.8,2.8,2.3v1.3c1.4,0,2,1.9,2,5.6c0,1.1-0.1,1.8-0.2,2.2l0.2,1.8v7c-0.1,0.7-0.2,1.9-0.2,3.5
		c-0.1,1.6-0.2,2.8-0.2,3.6c0.5,2.5,1.2,3.7,2,3.7c0.8,0,1.5-0.6,2-1.8c1.4-1.8,2.9-5.3,4.6-10.7c1.2-2.9,2.2-6.4,3-10.4
		c0.2-1.2,0.3-1.8,0.2-1.8h0.2l0.2-0.2c-0.2,0-0.2-0.1,0-0.2l1.8-1l0.8-0.2c0.6,0,1,0.2,1,0.7v2l-0.2,2.3c-0.9,2.9-1.6,6.3-2,10.3
		c-0.3,1.4-0.5,3.5-0.5,6.3c0,3.3,0.5,6.3,1.4,9.1c0,2.5,0.1,3.8,0.4,3.8c0.5,0,1-0.4,1.4-1.1l3.5-3.5l2.8-4.8
		c2.1-3.1,3.1-4.7,3.2-4.9l0.5,0.4v0.2l-0.3,0.2c0,0.8-0.3,1.3-0.8,1.5c-0.6,1.3-1.3,2.7-2.1,4.1s-1.4,2.5-1.9,3.4
		c-0.5,0.9-1.2,1.9-2.1,3.2c-0.9,1.2-1.5,2-1.9,2.4c-1.5,1.7-2.7,2.5-3.6,2.5c-3.1,0-4.6-2.8-4.6-8.3c0-4.7,0.3-9.2,1-13.4
		c-2.1,5.9-3.7,9.9-4.8,11.9c-2.1,3.8-4.4,5.9-6.8,6.1c-3.1,0.2-4.7-5.5-4.7-17.2C379.8,173.1,379.8,170.6,379.9,168.9z"/>
	<path class="st1" d="M430.6,144.1c0,2.1-0.3,4.5-0.8,7.4c-0.5,2.8-1,5.2-1.6,7c-0.5,1.8-1.3,4.4-2.3,7.7c-1,3.4-1.7,5.4-1.9,6.1
		l9.1-15c1.8-2,3.3-3,4.6-3c4.6,0,8.1,2,10.6,6c2.2,3.3,3.4,7.6,3.4,13c0,8.2-1.4,14.4-4.3,18.8c-0.8,1-1.2,1.6-1.3,1.6
		c0.2,0.1,0.6,0.1,1,0.1c1.6,0,3.3-0.9,5-2.6c1.8-1.8,3.4-4,4.9-6.7c1.5-2.7,2.7-5,3.5-6.9c0.9-1.9,1.6-3.7,2.2-5.3
		c0.1,0,0.3,0,0.6-0.1c0.3-0.1,0.5-0.1,0.7,0c0.1,0.1,0.1,0.3,0.1,0.6c-1.7,7.6-5.2,14-10.6,19.3c-5.4,5.3-11.5,7.9-18.4,7.9
		c-4,0-6.4-2.1-7.2-6.4v-1.3c0-2.2,0.8-3.2,2.3-3.2c0.9,0,1.7,0.4,2.5,1.3c0.8,0.8,1.1,1.9,1.1,3.3c0,0.6,0.3,1,1,1
		c2.3,0,4.1-3.3,5.4-10c1.2-4.8,1.8-10,1.8-15.7c0-2.6-0.1-4.8-0.4-6.6c-0.5-1.8-1.2-2.8-2-2.8h-0.7c-3.8,0-7.3,3.4-10.3,10.3
		c-2.8,6.2-4.8,14-6.1,23.4c-1.2,8-1.8,16.4-1.8,25.3c0,6.6,0.3,10.9,0.8,13.1c-1.9,0-3.9-1-5.9-3c-2.7-3-4.1-7.7-4.1-13.9
		c0-3.6,0.9-9.4,2.8-17.3c0.7-4.2,1.6-7.9,2.5-11c0.7-3,2-9.4,3.8-19.2c1.8-9.8,2.8-14.7,2.8-14.9c-0.2,0.5-2.9,5.9-7.9,16.3
		c-5,10.4-8.3,16.6-9.9,18.8c-0.4,0.6-0.9,1-1.4,1c-0.2,0.2-0.4,0.2-0.6,0.2c-0.2,0-0.2-0.2-0.2-0.7v-0.5c2.2-3.1,5.7-9.9,10.6-20.4
		c4.9-10.5,8.3-19.6,10.3-27.5C428.4,139.5,430.6,141,430.6,144.1z"/>
	<path class="st1" d="M499.3,174.2c0.4,0,0.6,0.2,0.6,0.6c0,0.9-0.9,3.4-2.6,7.7c-1.7,4.2-3.6,7.8-5.6,10.6
		c-6.6,8.6-12.4,12.8-17.4,12.8c-5.7,0-10.3-2.8-13.8-8.3c-2.8-4.7-4.2-10.6-4.2-17.8c0-2.3,0.2-4.6,0.7-6.8
		c-0.8-0.5-1.6-1.3-2.5-2.5c-1-1-1.6-1.8-1.6-2.3l2.5,0.2c1.3,0.6,2.1,1,2.5,1.2c0.6-2.9,1.9-6.2,3.8-9.8c3.9-6.6,8.1-9.8,12.5-9.8
		c0.6,0,1.3,0.6,2.2,1.7c0.2,0.2,0.5,0.7,0.7,1.3c0.2,0.6,0.4,1.1,0.7,1.4c0.8-0.4,1.5-0.6,2-0.6c1.8,0,3.3,0.9,4.5,2.6
		c1.2,1.8,1.9,3.8,1.9,6c0,3.9-1,7.6-2.9,10.9c-2.7,4.4-6.5,6.6-11.4,6.6c-1.5,0-3.1-0.3-4.8-0.8v1.6c0,5,1.1,9.8,3.4,14.3
		c2.2,4,4.6,6,7.3,6c2.6,0,6.2-3,10.7-8.9c1.1-1.5,2.4-3.5,3.9-5.9c1.5-2.4,2.9-4.9,4.4-7.4C498.2,176,499,174.6,499.3,174.2z
		 M478.5,157c-3.4,0.9-6.2,4-8.3,9.4c-0.8,1.9-1.7,5-2.8,9.1c1.6,0.6,2.6,1,3,1c1.8,0,3.6-0.6,5.2-1.9c1.6-1.2,2.9-2.7,3.9-4.5
		c2-3.6,3-6.9,3-9.8c0-1.4-0.4-2.6-1.3-3.6c-0.9-1-2-1.6-3.5-1.7L478.5,157z"/>
	<path class="st1" d="M526.3,178.7c0.8,0.6,0.1,3.4-2.1,8.4c-2.2,5-4.5,9.2-6.8,12.6c-4.1,5.4-7.4,8.2-9.8,8.2
		c-2.2,0-3.4-2.1-3.4-6.4c0-2.5,0.8-8.3,2.5-17.6c1.6-9.2,2.5-14.9,2.5-17.1c0-1-0.4-1.9-1.3-2.7c-0.8-0.8-1.7-1.3-2.6-1.7
		c-0.9-0.4-2.2-0.8-3.8-1.3c-1.8,7.1-3.7,12.9-5.5,17.4c-0.6,1.1-1.6,2.7-2.8,4.8c-0.9,1.4-1.5,2.1-1.8,2.3c-0.1,0-0.2,0-0.2,0h-0.5
		c3.8-9,5.8-13.8,6-14.4c1-3.7,1.6-7.3,1.6-10.9c-1.9-0.8-2.9-2.7-2.9-5.8c0-3.2,0.9-5.9,2.6-8.2c2-2.7,4.1-4.1,6.2-4.1
		c0.4,0,0.8,0.3,1.3,0.8c0.8,0.6,1.2,1.5,1.2,2.8c0,2-0.6,4.4-1.9,7.1c-0.3,0.8-0.8,2-1.6,3.5c-0.7,1.5-1.2,2.5-1.3,2.9
		c3.3,0.2,6.4,1,9.4,2.3c3,1.7,4.6,3.4,4.6,5.3c0,1.9-0.8,6.6-2.3,14c-1.5,7.4-2.3,11.6-2.3,12.7c0,2.6,0.6,4,1.8,4
		c1.4,0,3.5-2.2,6.3-6.5S524.4,182.6,526.3,178.7z"/>
	<path class="st1" d="M626.4,176.2c-3.7,12.7-12.2,22.5-25.4,29.3c0.7,1.5,1.1,3.1,1.1,4.7c0,5.2-1.8,9.6-5.5,13.3
		c-3.6,3.7-7.9,6.2-12.7,7.7c-4.8,1.4-9.8,2.2-14.9,2.2c-5.4,0-9.5-0.8-12.4-2.5c-2.9-1.7-4.3-4-4.3-6.8c0-2.4,1.7-4.4,5-5.9
		c3.3-1.5,8.7-3.3,16.1-5.3c7.4-2,13.5-4.1,18.4-6.2c-2.1-2.7-5.8-6.1-11.1-10.3c-5.3-4.1-10.4-7.9-15.2-11.2
		c-4.8-3.4-9.2-7.1-13-11.3c-3.8-4.2-5.8-7.8-5.8-11c0-4.6,1.7-8.6,5-12c3.3-3.4,7.5-6,12.5-7.6c5-1.6,10.4-2.5,16.1-2.5
		c9,0,16.7,2,23.1,6.1c6.4,4.1,9.7,9.8,9.7,17.3c0,6-4.1,9.8-12.2,11.5c-1.5,0.3-2.9,0.5-4.2,0.5c-1.6,0-3-0.3-4.1-0.8
		c-0.4-0.2-0.6-0.5-0.6-0.7c0-0.2,0.3-0.4,0.8-0.6c2.5-0.5,4.7-2.3,6.8-5.5c2-3.2,3.1-6.5,3.1-10c0-4-2.5-7.4-7.4-10.3
		c-4.9-2.9-10.5-4.3-16.6-4.3c-5.8,0-11.2,1.7-16,5c-4.8,3.4-7.3,7.8-7.3,13.3c0,2.5,1.9,5.5,5.6,8.9c3.8,3.5,8,6.8,12.8,9.8
		c4.8,3.1,9.7,6.7,14.9,10.8c5.2,4.1,8.8,7.8,11,11.1C611.6,196.2,620.5,187.3,626.4,176.2z M594.3,212.5c0-1-0.3-2.2-1-3.6
		c-4.7,1.8-10.4,3.6-17.2,5.2c-6.7,1.6-11.7,3-14.9,4.2c-3.2,1.2-4.9,2.5-4.9,4.1c0,1.8,1.4,3.1,4.1,4.1s5.8,1.4,9.2,1.4
		c3.5,0,7.1-0.6,10.8-1.7c3.7-1.2,6.9-3,9.7-5.4C592.9,218.4,594.3,215.6,594.3,212.5z"/>
	<path class="st1" d="M643.4,171.4c0,0.3,0.2,0.6,0.5,1v0.5l-0.2,0.2c-1.1,4.1-3.4,9-7,14.8c-3.6,5.8-6.6,8.6-9.1,8.6
		c-1,0-1.9-0.5-2.9-1.6c-1-1-1.4-2-1.4-2.8c0-0.3,0.1-0.5,0.2-0.5v-0.2c0-2.6,0.4-8.2,1.1-16.8c-0.4,1.9-2,5-4.7,9.4
		c-1.5,2.3-2.3,3-2.3,2c1.5-3.6,2.8-6.7,4-9.2c1.1-2.6,2.1-4.7,2.9-6.4c0.4-3.5,1.7-5.3,3.8-5.3c1.7,0,2.5,1.3,2.5,3.8
		c0,1.4-0.3,2.9-1,4.6v14.9c0,0.8,0.1,1.4,0.2,1.9l0.7,0.4c1.3,0,3.4-2.4,6.2-7.3c2.8-4.8,4.8-8.8,5.9-12H643.4z M622.6,155.6
		c0-0.5,0.3-0.8,0.8-1.1c0.5-0.5,1-1,1.4-1.7l4.1-3.6c0.2-0.1,0.4-0.2,0.8-0.4c0.4-0.2,0.7-0.3,1-0.3c1.4,0,2,2,2,6v1.8
		c0,0.9-0.4,1.7-1.3,2.5c-0.9,0.8-1.9,1.1-3,1.1c-0.6,0-1.2-0.1-1.9-0.4c-0.7-0.2-1.3-0.6-1.9-1c-0.6-0.4-1.1-0.9-1.5-1.4
		C622.8,156.6,622.6,156.1,622.6,155.6z"/>
	<path class="st1" d="M645.8,158.8l-0.2,4c-0.1,1.9,0,4,0.4,6.1v11.8l0.5,15.8c1.6,0,4.4-2.8,8.5-8.3s7-9.6,8.6-12.4
		c0.5,1.7-1.9,7-7.1,15.8c-5.2,8.9-8.7,13.3-10.5,13.3c-3.2,0-5.6-1.9-7.3-5.8c-1.6-3.9-2.5-8.3-2.5-13.3c0-1.4,0-3.1,0.1-4.9
		c0.1-1.8,0.2-4,0.3-6.4c0.1-2.4,0.2-4.2,0.3-5.5c0.1-0.9,0.2-2.2,0.3-3.8c0.1-1.6,0.2-2.7,0.3-3.3c0-0.6,0.1-1.7,0.3-3.2
		c-5.9,0-9.1,0.2-9.6,0.5l-0.7,0.2l-0.7,0.1c-0.9,0-1.9-1-3.1-3.1c-0.5-0.7-0.7-1.4-0.7-2c0-1.2,0.8-1.8,2.3-1.8
		c0.2,0,0.4,0,0.6,0.1c0.2,0,0.5,0.1,0.7,0.1h0.2c0.2,0.2,0.4,0.2,0.7,0.2c0.2,0.3,0.4,1,0.7,1.9c0.3,0,1.4,0,3.2-0.1
		c1.8,0,3.2-0.1,4.2-0.1h2.4c0-0.6,0-1.3,0.1-2.2c0-0.9,0.1-1.6,0.1-2c0-1,0-1.6-0.1-1.8v-1.8c0-2,0.5-3.2,1.6-3.7l0.4-0.2
		c0.6,0,0.8,0.1,0.8,0.3c0.8,0.4,1.6,1.3,2.5,2.5c0.8,1.3,1.3,2.5,1.5,3.7c0.9,0.5,1.3,1.1,1.3,1.9l-0.2,2.4v1.7
		c3.1,0.2,5.9,0.4,8.3,0.4c2.7,0,5.4-0.1,8-0.4c2.6-0.3,4.1-0.4,4.4-0.4c0.4,0,0.8,0.1,1.4,0.3c0,0.5-0.7,1-2.1,1.5
		c-1.4,0.5-3.3,0.9-5.7,1.2c-2.4,0.3-4.9,0.5-7.5,0.5C649.8,158.7,647.5,158.7,645.8,158.8z"/>
	<path class="st1" d="M700.8,174.2c0.4,0,0.6,0.2,0.6,0.6c0,0.9-0.9,3.4-2.6,7.7c-1.7,4.2-3.6,7.8-5.6,10.6
		c-6.6,8.6-12.4,12.8-17.4,12.8c-5.7,0-10.3-2.8-13.8-8.3c-2.8-4.7-4.2-10.6-4.2-17.8c0-2.3,0.2-4.6,0.7-6.8
		c-0.8-0.5-1.6-1.3-2.5-2.5c-1-1-1.6-1.8-1.6-2.3l2.5,0.2c1.3,0.6,2.1,1,2.5,1.2c0.6-2.9,1.9-6.2,3.8-9.8c3.9-6.6,8.1-9.8,12.5-9.8
		c0.6,0,1.3,0.6,2.2,1.7c0.2,0.2,0.5,0.7,0.7,1.3c0.2,0.6,0.4,1.1,0.7,1.4c0.8-0.4,1.5-0.6,2-0.6c1.8,0,3.3,0.9,4.5,2.6
		c1.2,1.8,1.9,3.8,1.9,6c0,3.9-1,7.6-2.9,10.9c-2.7,4.4-6.5,6.6-11.4,6.6c-1.5,0-3.1-0.3-4.8-0.8v1.6c0,5,1.1,9.8,3.4,14.3
		c2.2,4,4.6,6,7.3,6c2.6,0,6.2-3,10.7-8.9c1.1-1.5,2.4-3.5,3.9-5.9c1.5-2.4,2.9-4.9,4.4-7.4S700.5,174.6,700.8,174.2z M680,157
		c-3.4,0.9-6.2,4-8.3,9.4c-0.8,1.9-1.7,5-2.8,9.1c1.6,0.6,2.6,1,3,1c1.8,0,3.6-0.6,5.2-1.9c1.6-1.2,2.9-2.7,3.9-4.5
		c2-3.6,3-6.9,3-9.8c0-1.4-0.4-2.6-1.3-3.6c-0.9-1-2-1.6-3.5-1.7L680,157z"/>
</g>
<rect x="-787.6" y="-724" class="st5" width="268.6" height="86.1"/>
<text transform="matrix(1 0 0 1 -787.5664 -672.3784)" class="st2 st7">Laravel</text>
<g>
	<g>
		<rect x="135.9" y="415.9" class="st5" width="696" height="126.6"/>
		<text transform="matrix(1 0 0 1 135.8926 501.9355)" class="st1 st2 st4 st3">Your Super Site</text>
	</g>
	<text transform="matrix(1 0 0 1 288.9312 572.7529)" class="st0 st8 st6">концепция дизайн функционал seo</text>
</g>
</svg>
